<svg xmlns="http://www.w3.org/2000/svg" fill="none" viewBox="-0.57 -0.57 16 16" id="Lasso-Tool--Streamline-Core" height="16" width="16">
  <desc>
    Lasso Tool Streamline Icon: https://streamlinehq.com
  </desc>
  <g id="lasso-tool">
    <path id="Vector 1053" stroke="#fefefe" stroke-linecap="round" stroke-linejoin="round" d="M4.3762593857142855 13.489377285714285c1.6111742714285713 0 2.0139651857142855 -1.1383821428571428 2.0139651857142855 -1.7076262857142857 0 -0.569138 -0.40279091428571423 -1.7075095285714283 -2.0139651857142855 -1.7075095285714283 -1.611163657142857 0 -2.013954571428571 1.1383715285714284 -2.013954571428571 1.7075095285714283 0 0.5692441428571429 0.40279091428571423 1.7076262857142857 2.013954571428571 1.7076262857142857Z" stroke-width="1.14"></path>
    <path id="Vector 1039" stroke="#fefefe" stroke-linecap="round" stroke-linejoin="round" d="M7.43 10.40833672857143c-5.519428571428572 0 -6.899285714285714 -3.2497864714285716 -6.899285714285714 -4.8746744C0.5307142857142857 3.9087744 1.9105714285714286 0.6589879285714285 7.43 0.6589879285714285s6.899285714285714 3.2497864714285716 6.899285714285714 4.8746744c0 1.6248879285714286 -1.379857142857143 4.8746744 -6.899285714285714 4.8746744Z" stroke-width="1.14"></path>
    <path id="Vector 1054" stroke="#fefefe" stroke-linecap="round" stroke-linejoin="round" d="M5.929023242857142 10.648463714285713c1.0716182857142857 1.2175647142857142 1.7860340142857143 2.0292391428571426 1.782425157142857 3.5507969999999998" stroke-width="1.14"></path>
  </g>
</svg>