<svg xmlns="http://www.w3.org/2000/svg" fill="none" viewBox="-0.57 -0.57 16 16" id="Like-1--Streamline-Core" height="16" width="16">
  <desc>
    Like 1 Streamline Icon: https://streamlinehq.com
  </desc>
  <g id="like-1--reward-social-up-rating-media-like-thumb-hand">
    <path id="Vector" stroke="#fefefe" stroke-linecap="round" stroke-linejoin="round" d="M1.1103604285714286 6.171103257142857h2.4957157714285714v6.644691457142857H1.1103604285714286c-0.13964366571428571 0 -0.27356623142857145 -0.05540657142857143 -0.37230774714285714 -0.15422557142857143 -0.09874257714285714 -0.09871285714285714 -0.15421495714285713 -0.23266514285714285 -0.15421495714285713 -0.372243V6.6976249c0 -0.13964154285714286 0.05547238 -0.2735619857142857 0.15421495714285713 -0.3723066857142857 0.09874151571428572 -0.09873408571428571 0.23266408142857142 -0.15421495714285713 0.37230774714285714 -0.15421495714285713v0Z" stroke-width="1.14"></path>
    <path id="Vector_2" stroke="#fefefe" stroke-linecap="round" stroke-linejoin="round" d="m3.6060337428571425 6.170699914285714 2.6747256999999998 -4.275359985714285c0.10365911428571428 -0.16897942857142859 0.24931895714285712 -0.30823885714285715 0.42278822857142856 -0.40420261428571425 0.1734692714285714 -0.09596375714285714 0.3688464285714285 -0.14535202857142857 0.5670788285714286 -0.14337777142857142 0.15612552857142856 -0.005636185714285714 0.31179464285714287 0.020082228571428568 0.4578047571428572 0.07563740000000001 0.14602072857142856 0.05555517142857142 0.2794104571428571 0.13981137142857142 0.3923146142857143 0.24780111428571427 0.11289354285714284 0.10798974285714286 0.20299821428571427 0.2375052571428571 0.2649750285714286 0.38091487142857144 0.06198742857142857 0.143399 0.09459451428571429 0.2977731714285714 0.09590007142857142 0.4539942285714285v3.0643549h4.6228823142857145c0.17078385714285713 0.005540657142857143 0.33848957142857145 0.047169885714285716 0.4920782857142857 0.12217042857142855 0.15358871428571427 0.07498992857142857 0.28955771428571425 0.18163165714285712 0.398991 0.31293037142857144 0.1094332857142857 0.1312987142857143 0.18978342857142855 0.2842611857142857 0.23584942857142857 0.44884630000000003 0.046066 0.1645851142857143 0.05678642857142857 0.3370566428571428 0.03141828571428571 0.5060679142857143l-0.8424558571428571 5.433718214285714c-0.03587628571428571 0.29040685714285713 -0.17672785714285716 0.5576745714285714 -0.3958067142857143 0.7515975714285713 -0.21907885714285713 0.19392299999999998 -0.501525 0.3011272857142857 -0.7941608571428571 0.30144571428571426H5.322491114285714c-0.32884118571428567 0.0012737142857142856 -0.6534154285714285 -0.07440614285714285 -0.947738957142857 -0.22120171428571428l-0.7581890428571428 -0.3790361428571428" stroke-width="1.14"></path>
    <path id="Vector_3" stroke="#fefefe" stroke-linecap="round" stroke-linejoin="round" d="M3.6060337428571425 6.170848514285714v6.644733914285714" stroke-width="1.14"></path>
  </g>
</svg>