<svg xmlns="http://www.w3.org/2000/svg" viewBox="-0.335 -0.335 16 16" id="Drawer-Upload--Streamline-Ultimate" height="16" width="16">
  <desc>
    Drawer Upload Streamline Icon: https://streamlinehq.com
  </desc>
  <title>drawer-upload</title>
  <path d="M15.010624999999997 14.371875a0.6387499999999999 0.6387499999999999 0 0 1 -0.6387499999999999 0.6387499999999999h-13.413749999999999a0.6387499999999999 0.6387499999999999 0 0 1 -0.6387499999999999 -0.6387499999999999v-3.8324999999999996h4.4712499999999995v0.6387499999999999a1.2813324999999998 1.2813324999999998 0 0 0 1.2774999999999999 1.2774999999999999h3.1937499999999996a1.2813324999999998 1.2813324999999998 0 0 0 1.2774999999999999 -1.2774999999999999v-0.6387499999999999h4.4712499999999995Z" fill="none" stroke="#fefefe" stroke-linecap="round" stroke-linejoin="round" stroke-width="0.67"></path>
  <path d="M0.31937499999999996 10.539375 2.3704012499999996 7.026249999999999a0.6387499999999999 0.6387499999999999 0 0 1 0.5512412499999999 -0.31937499999999996H4.7906249999999995" fill="none" stroke="#fefefe" stroke-linecap="round" stroke-linejoin="round" stroke-width="0.67"></path>
  <path d="M10.539375 6.706874999999999h1.8689825a0.6387499999999999 0.6387499999999999 0 0 1 0.5512412499999999 0.31937499999999996l2.0510262499999996 3.5131249999999996" fill="none" stroke="#fefefe" stroke-linecap="round" stroke-linejoin="round" stroke-width="0.67"></path>
  <path d="m7.664999999999999 0.31937499999999996 0 7.026249999999999" fill="none" stroke="#fefefe" stroke-linecap="round" stroke-linejoin="round" stroke-width="0.67"></path>
  <path d="m5.109999999999999 2.8743749999999997 2.5549999999999997 -2.5549999999999997 2.5549999999999997 2.5549999999999997" fill="none" stroke="#fefefe" stroke-linecap="round" stroke-linejoin="round" stroke-width="0.67"></path>
</svg>