<svg xmlns="http://www.w3.org/2000/svg" fill="none" viewBox="-0.57 -0.57 16 16" id="User-Circle-Single--Streamline-Core" height="16" width="16">
  <desc>
    User Circle Single Streamline Icon: https://streamlinehq.com
  </desc>
  <g id="user-circle-single--circle-geometric-human-person-single-user">
    <path id="Vector" stroke="#fefefe" stroke-linecap="round" stroke-linejoin="round" d="M7.43 8.491428571428571c1.465525042857143 0 2.6535714285714285 -1.1880463857142856 2.6535714285714285 -2.6535714285714285S8.895525042857143 3.184285714285714 7.43 3.184285714285714 4.776428571428571 4.3723321 4.776428571428571 5.837857142857143 5.9644749571428575 8.491428571428571 7.43 8.491428571428571Z" stroke-width="1.14"></path>
    <path id="Vector_2" stroke="#fefefe" stroke-linecap="round" stroke-linejoin="round" d="M2.897678771428571 12.631c0.47365188571428574 -0.7774964285714285 1.1393480428571428 -1.4200852857142858 1.9330843285714285 -1.8658852857142856 0.7937362857142857 -0.4459273714285714 1.6888177714285715 -0.6801209714285714 2.599215671428571 -0.6801209714285714 0.9103979 0 1.8054793857142857 0.2341936 2.599215671428571 0.6801209714285714 0.7937681285714285 0.4458 1.4593899857142856 1.0883888571428573 1.933105557142857 1.8658852857142856" stroke-width="1.14"></path>
    <path id="Vector_3" stroke="#fefefe" stroke-linecap="round" stroke-linejoin="round" d="M7.43 14.329285714285714c3.8104224285714285 0 6.899285714285714 -3.0888632857142855 6.899285714285714 -6.899285714285714C14.329285714285714 3.6196306428571425 11.240422428571428 0.5307142857142857 7.43 0.5307142857142857 3.6196306428571425 0.5307142857142857 0.5307142857142857 3.6196306428571425 0.5307142857142857 7.43c0 3.8104224285714285 3.088916357142857 6.899285714285714 6.899285714285714 6.899285714285714Z" stroke-width="1.14"></path>
  </g>
</svg>